<svg width="1293" height="1293" viewBox="0 0 1293 1293" fill="none" xmlns="http://www.w3.org/2000/svg">
<path d="M677.376 110.235C677.376 171.117 726.73 220.471 787.611 220.471H878.317C891.12 220.471 901.499 230.85 901.499 243.653C901.499 256.456 891.12 266.834 878.317 266.834H789.437C727.547 266.834 677.376 317.006 677.376 378.896V494.018C677.376 506.821 666.997 517.2 654.194 517.2C641.391 517.2 631.012 506.821 631.012 494.018V386.59C631.012 320.451 577.396 266.834 511.257 266.834H414.683C401.88 266.834 391.501 256.456 391.501 243.653C391.501 230.85 401.88 220.471 414.683 220.471H520.777C581.658 220.471 631.012 171.117 631.012 110.235V23.1817C631.012 10.3788 641.391 0 654.194 0C666.997 0 677.376 10.3788 677.376 23.1817V110.235Z" fill="black"/>
<path d="M1182.76 677.376C1121.88 677.376 1072.53 726.73 1072.53 787.611V878.317C1072.53 891.12 1062.15 901.499 1049.35 901.499C1036.54 901.499 1026.17 891.12 1026.17 878.317V789.437C1026.17 727.547 975.994 677.376 914.104 677.376H798.982C786.179 677.376 775.8 666.997 775.8 654.194C775.8 641.391 786.179 631.012 798.982 631.012H906.41C972.549 631.012 1026.17 577.396 1026.17 511.257V414.683C1026.17 401.88 1036.54 391.501 1049.35 391.501C1062.15 391.501 1072.53 401.88 1072.53 414.683V520.777C1072.53 581.658 1121.88 631.012 1182.76 631.012L1269.82 631.012C1282.62 631.012 1293 641.391 1293 654.194C1293 666.997 1282.62 677.376 1269.82 677.376L1182.76 677.376Z" fill="black"/>
<path d="M615.624 1182.76C615.624 1121.88 566.27 1072.53 505.389 1072.53H414.683C401.88 1072.53 391.501 1062.15 391.501 1049.35C391.501 1036.54 401.88 1026.17 414.683 1026.17H503.563C565.453 1026.17 615.624 975.994 615.624 914.104V798.982C615.624 786.179 626.003 775.8 638.806 775.8C651.609 775.8 661.988 786.179 661.988 798.982V906.41C661.988 972.549 715.604 1026.17 781.743 1026.17H878.317C891.12 1026.17 901.499 1036.54 901.499 1049.35C901.499 1062.15 891.12 1072.53 878.317 1072.53H772.223C711.342 1072.53 661.988 1121.88 661.988 1182.76V1269.82C661.988 1282.62 651.609 1293 638.806 1293C626.003 1293 615.624 1282.62 615.624 1269.82V1182.76Z" fill="black"/>
<path d="M110.235 615.624C171.117 615.624 220.471 566.27 220.471 505.389V414.683C220.471 401.88 230.85 391.501 243.653 391.501C256.456 391.501 266.834 401.88 266.834 414.683V503.563C266.834 565.453 317.006 615.624 378.896 615.624H494.018C506.821 615.624 517.2 626.003 517.2 638.806C517.2 651.609 506.821 661.988 494.018 661.988H386.59C320.451 661.988 266.834 715.604 266.834 781.743V878.317C266.834 891.12 256.456 901.499 243.653 901.499C230.85 901.499 220.471 891.12 220.471 878.317V772.223C220.471 711.342 171.117 661.988 110.235 661.988H23.1817C10.3788 661.988 -1.52673e-07 651.609 0 638.806C1.52673e-07 626.003 10.3788 615.624 23.1817 615.624H110.235Z" fill="black"/>
</svg>
