<svg width="1700" height="336" viewBox="0 0 1700 336" fill="none" xmlns="http://www.w3.org/2000/svg">
<path d="M0 210.894V132.255C0 96.5106 30.4728 78.6383 91.4183 78.6383H176.742C237.688 78.6383 268.16 96.5106 268.16 132.255V210.894C268.16 246.638 237.688 264.511 176.742 264.511H91.4183C30.4728 264.511 0 246.638 0 210.894ZM48.7564 214.468C48.7564 231.149 62.9771 239.489 91.4183 239.489H176.742C205.183 239.489 219.404 231.149 219.404 214.468V128.681C219.404 112 205.183 103.66 176.742 103.66H91.4183C62.9771 103.66 48.7564 112 48.7564 128.681V214.468Z" fill="black"/>
<path d="M363.788 336C362.131 336 360.788 334.657 360.788 333V81.6383C360.788 79.9814 362.131 78.6383 363.788 78.6383H531.436C592.381 78.6383 622.854 96.5106 622.854 132.255V210.894C622.854 246.638 592.381 264.511 531.436 264.511H412.545C410.888 264.511 409.545 265.854 409.545 267.511V333C409.545 334.657 408.201 336 406.545 336H363.788ZM409.545 236.489C409.545 238.146 410.888 239.489 412.545 239.489H531.436C559.877 239.489 574.098 231.149 574.098 214.468V128.681C574.098 112 559.877 103.66 531.436 103.66H412.545C410.888 103.66 409.545 105.003 409.545 106.66V236.489Z" fill="black"/>
<path d="M713.073 210.894V20.8723C713.073 19.2155 714.416 17.8723 716.073 17.8723H758.829C760.486 17.8723 761.829 19.2155 761.829 20.8723V75.6383C761.829 77.2951 763.172 78.6383 764.829 78.6383H874.625C876.282 78.6383 877.625 79.9814 877.625 81.6383V100.66C877.625 102.316 876.282 103.66 874.625 103.66H764.829C763.172 103.66 761.829 105.003 761.829 106.66V214.468C761.829 231.149 776.05 239.489 804.491 239.489H880.72C882.377 239.489 883.72 240.833 883.72 242.489V251.829C883.72 253.019 883.017 254.096 881.928 254.576L859.919 264.257C859.538 264.424 859.127 264.511 858.711 264.511H804.491C743.545 264.511 713.073 246.638 713.073 210.894Z" fill="black"/>
<path d="M1029.14 264.511C967.785 264.511 937.109 246.519 937.109 210.536C937.109 174.553 967.785 156.562 1029.14 156.562H1137.67C1139.32 156.562 1140.67 155.219 1140.67 153.562V128.681C1140.67 112 1126.45 103.66 1098.01 103.66H970.582C968.925 103.66 967.582 102.316 967.582 100.66V91.3195C967.582 90.1298 968.285 89.0524 969.374 88.5734L991.383 78.8922C991.764 78.7248 992.175 78.6383 992.591 78.6383H1098.01C1158.95 78.6383 1189.42 96.5106 1189.42 132.255V261.511C1189.42 263.167 1188.08 264.511 1186.42 264.511H1029.14ZM985.866 214.468C985.866 231.149 1000.09 239.489 1028.53 239.489H1137.67C1139.32 239.489 1140.67 238.146 1140.67 236.489V182.796C1140.67 181.139 1139.32 179.796 1137.67 179.796H1028.53C1000.09 179.796 985.866 188.136 985.866 204.817V214.468Z" fill="black"/>
<path d="M1282.06 213.753V3C1282.06 1.34314 1283.4 0 1285.06 0H1327.81C1329.47 0 1330.81 1.34315 1330.81 3V216.613C1330.81 232.486 1344.07 241.142 1370.57 242.58C1372.19 242.667 1373.47 243.99 1373.47 245.608V264.37C1373.47 266.027 1372.11 267.372 1370.45 267.355C1311.52 266.769 1282.06 248.902 1282.06 213.753Z" fill="black"/>
<path d="M1437.93 210.894V132.255C1437.93 96.5106 1468.41 78.6383 1529.35 78.6383H1608.58C1669.53 78.6383 1700 96.5106 1700 132.255V179.655C1700 181.312 1698.66 182.655 1697 182.655H1489.69C1488.03 182.655 1486.69 183.998 1486.69 185.655V214.468C1486.69 231.149 1500.91 239.489 1529.35 239.489H1684.81C1686.47 239.489 1687.81 240.833 1687.81 242.489V251.829C1687.81 253.019 1687.11 254.096 1686.02 254.576L1664.01 264.257C1663.63 264.424 1663.22 264.511 1662.8 264.511H1529.35C1468.41 264.511 1437.93 246.638 1437.93 210.894ZM1486.69 156.421C1486.69 158.078 1488.03 159.421 1489.69 159.421H1648.24C1649.9 159.421 1651.24 158.078 1651.24 156.421V128.681C1651.24 112 1637.02 103.66 1608.58 103.66H1529.35C1500.91 103.66 1486.69 112 1486.69 128.681V156.421Z" fill="black"/>
</svg>
