<svg width="2177" height="749" viewBox="0 0 2177 749" fill="none" xmlns="http://www.w3.org/2000/svg">
<path d="M1073.06 436.154C1052.37 436.154 1036.85 435.76 1026.51 434.971C1016.16 434.34 1005.82 432.841 995.473 430.474C984.805 428.107 977.046 424.32 972.197 419.113C967.348 413.748 964.924 406.568 964.924 397.574V357.81C964.924 350.71 966.702 344.477 970.258 339.112C973.814 333.747 978.501 329.565 984.32 326.567C989.169 323.885 996.443 321.834 1006.14 320.414C1016.16 318.836 1026.35 317.81 1036.69 317.337C1048.33 317.021 1060.45 316.863 1073.06 316.863C1089.87 316.863 1102.48 317.1 1110.88 317.573C1119.61 317.889 1128.82 318.678 1138.52 319.94C1148.54 321.36 1156.3 323.49 1161.8 326.331C1167.29 329.171 1171.98 333.274 1175.86 338.639C1179.41 344.161 1181.19 350.552 1181.19 357.81V397.574C1181.19 410.986 1174.89 420.77 1162.28 426.923C1157.11 429.448 1149.67 431.42 1139.97 432.841C1130.28 434.261 1120.26 435.208 1109.91 435.681C1097.63 435.996 1085.34 436.154 1073.06 436.154ZM1073.06 422.19C1086.64 422.19 1096.49 422.032 1102.64 421.716C1108.78 421.401 1114.76 420.533 1120.58 419.113C1126.4 417.85 1130.44 415.799 1132.7 412.959C1135.29 409.961 1136.58 405.858 1136.58 400.651V354.26C1136.58 347.159 1134.8 342.031 1131.25 338.875C1127.69 335.562 1121.55 333.431 1112.82 332.485C1104.41 331.38 1091.16 330.828 1073.06 330.828C1054.95 330.828 1041.54 331.38 1032.81 332.485C1024.41 333.431 1018.42 335.562 1014.87 338.875C1011.31 342.031 1009.53 347.159 1009.53 354.26V400.651C1009.53 405.858 1010.67 409.961 1012.93 412.959C1015.52 415.799 1019.72 417.85 1025.54 419.113C1031.36 420.533 1037.34 421.401 1043.48 421.716C1049.62 422.032 1059.48 422.19 1073.06 422.19Z" fill="black"/>
<path d="M1212.67 340.871C1212.67 328.922 1222.33 319.236 1234.25 319.236H1249.69C1253.08 319.236 1255.83 321.991 1255.83 325.39V331.258C1255.83 331.416 1255.96 331.544 1256.11 331.544C1256.23 331.544 1256.34 331.47 1256.38 331.359C1260.21 321.699 1286.86 316.869 1336.32 316.869C1366.06 316.869 1388.53 319.946 1403.73 326.1C1418.92 332.096 1426.52 339.828 1426.52 349.296V396.397C1426.52 403.182 1424.42 409.099 1420.21 414.148C1416.33 419.198 1411.16 423.142 1404.7 425.983C1398.88 428.665 1390.79 430.795 1380.45 432.373C1370.43 433.951 1360.41 434.977 1350.39 435.45C1341.33 435.924 1330.34 436.16 1317.41 436.16C1303.19 436.16 1290.1 435.371 1278.14 433.793C1269.91 432.567 1256.31 441.521 1256.31 449.853V467.113C1256.31 475.901 1249.21 483.025 1240.44 483.025H1234.49C1222.44 483.025 1212.67 473.229 1212.67 461.147V340.871ZM1318.38 421.722C1335.19 421.722 1347.96 421.17 1356.69 420.065C1365.74 418.803 1372.21 416.594 1376.09 413.438C1379.97 410.282 1381.9 405.47 1381.9 399V356.87C1381.9 349.769 1379.97 344.483 1376.09 341.011C1372.21 337.54 1365.74 335.252 1356.69 334.148C1347.96 332.885 1335.03 332.254 1317.9 332.254C1300.76 332.254 1287.99 332.885 1279.59 334.148C1271.18 335.252 1265.2 337.54 1261.65 341.011C1258.09 344.325 1256.31 349.611 1256.31 356.87V399C1256.31 405.47 1258.09 410.282 1261.65 413.438C1265.53 416.594 1271.83 418.803 1280.56 420.065C1289.29 421.17 1301.9 421.722 1318.38 421.722Z" fill="black"/>
<path d="M1589.41 436.154C1569.36 436.154 1553.69 435.129 1542.37 433.077C1531.06 430.868 1522.81 427.239 1517.64 422.19C1512.79 416.983 1510.37 409.724 1510.37 400.414V359.448C1510.37 344.949 1498.64 333.195 1484.18 333.195H1464.96C1461.12 333.195 1458 330.069 1458 326.212C1458 322.356 1461.12 319.23 1464.96 319.23H1492.66C1502.44 319.23 1510.37 311.282 1510.37 301.478C1510.37 291.674 1518.29 283.727 1528.07 283.727H1536.79C1546.57 283.727 1554.49 291.674 1554.49 301.478C1554.49 311.282 1562.42 319.23 1572.2 319.23H1631.42C1635.26 319.23 1638.38 322.356 1638.38 326.212C1638.38 330.069 1635.26 333.195 1631.42 333.195H1585.62C1568.43 333.195 1554.49 347.167 1554.49 364.403V401.598C1554.49 407.278 1555.79 411.539 1558.37 414.379C1561.28 417.219 1566.13 419.27 1572.92 420.533C1580.03 421.637 1590.22 422.19 1603.47 422.19C1607.09 422.19 1616.25 421.72 1630.93 420.781C1634.96 420.524 1638.38 423.726 1638.38 427.774C1638.38 431.434 1635.57 434.48 1631.93 434.723C1617.63 435.677 1603.46 436.154 1589.41 436.154Z" fill="black"/>
<path d="M1755.69 436.154C1733.39 436.154 1716.09 435.129 1703.81 433.077C1691.85 431.026 1683.12 427.397 1677.62 422.19C1672.45 416.983 1669.86 409.487 1669.86 399.704C1669.86 391.026 1672.29 384.319 1677.14 379.586C1682.31 374.694 1690.88 371.223 1702.84 369.171C1715.12 367.12 1732.42 366.094 1754.72 366.094H1806.86C1816.9 366.094 1825.03 357.935 1825.03 347.869C1825.03 343.609 1823.26 340.374 1819.7 338.165C1816.47 335.798 1810.81 334.141 1802.73 333.195C1794.97 332.248 1783.49 331.775 1768.3 331.775C1746.32 331.775 1722.23 332.552 1696 334.108C1691.56 334.371 1687.81 330.841 1687.81 326.381C1687.81 322.249 1691.05 318.848 1695.17 318.677C1724.26 317.468 1750.74 316.863 1774.6 316.863C1801.76 316.863 1821.8 317.889 1834.73 319.94C1847.66 321.834 1856.55 325.226 1861.4 330.118C1866.25 335.009 1868.68 342.583 1868.68 352.84V412.639C1868.68 424.319 1859.23 433.787 1847.58 433.787H1828.25C1827.28 433.787 1826.49 432.995 1826.49 432.017C1826.49 430.071 1821.59 427.973 1819.84 428.809C1809.56 433.706 1788.18 436.154 1755.69 436.154ZM1762.97 422.19C1778.81 422.19 1792.22 421.637 1803.21 420.533C1817.76 419.113 1825.03 415.799 1825.03 410.592C1825.03 393.356 1811.1 379.349 1793.91 379.349H1757.63C1743.73 379.349 1733.71 379.901 1727.57 381.006C1721.43 381.953 1717.38 383.846 1715.44 386.686C1713.51 389.527 1712.54 394.103 1712.54 400.414C1712.54 406.095 1713.67 410.513 1715.93 413.669C1718.19 416.667 1722.23 418.876 1728.05 420.296C1733.87 421.558 1742.6 422.19 1754.24 422.19H1762.97Z" fill="black"/>
<path d="M1900.16 292.35C1900.16 280.267 1909.93 270.472 1921.98 270.472C1934.03 270.472 1943.8 280.267 1943.8 292.35V414.276C1943.8 426.359 1934.03 436.154 1921.98 436.154C1909.93 436.154 1900.16 426.359 1900.16 414.276V292.35Z" fill="black"/>
<path d="M2082.93 436.154C2011.16 436.154 1975.28 424.478 1975.28 401.124V355.917C1975.28 342.031 1983.36 332.09 1999.52 326.094C2016.01 319.94 2042.52 316.863 2079.05 316.863C2113.64 316.863 2138.53 319.782 2153.72 325.621C2169.24 331.459 2177 341.558 2177 355.917C2177 369.904 2165.69 381.242 2151.74 381.242H2036.64C2027.12 381.242 2019.41 388.978 2019.41 398.521C2019.41 406.41 2025.06 412.091 2036.38 415.562C2047.69 419.034 2065.15 420.77 2088.75 420.77C2108.82 420.77 2132.16 419.236 2158.77 416.17C2163.56 415.619 2167.79 419.355 2167.79 424.188C2167.79 428.3 2164.69 431.753 2160.61 432.154C2133.49 434.821 2107.59 436.154 2082.93 436.154ZM2115.42 367.278C2125.33 367.278 2133.36 359.224 2133.36 349.29C2133.36 342.347 2128.99 337.613 2120.27 335.088C2111.86 332.406 2097.31 331.065 2076.62 331.065C2056.58 331.065 2042.03 332.406 2032.98 335.088C2023.93 337.613 2019.41 342.347 2019.41 349.29C2019.41 359.224 2027.44 367.278 2037.35 367.278H2115.42Z" fill="black"/>
<path d="M391.358 63.8564C391.358 99.1233 419.872 127.713 455.047 127.713H507.453C514.849 127.713 520.846 133.725 520.846 141.141C520.846 148.558 514.849 154.57 507.453 154.57H456.102C420.344 154.57 391.358 183.633 391.358 219.484V286.171C391.358 293.588 385.361 299.6 377.964 299.6C370.567 299.6 364.571 293.588 364.571 286.171V223.941C364.571 185.628 333.594 154.57 295.381 154.57H239.585C232.188 154.57 226.192 148.558 226.192 141.141C226.192 133.725 232.188 127.713 239.585 127.713H300.882C336.056 127.713 364.571 99.1233 364.571 63.8564V13.4285C364.571 6.01216 370.567 0 377.964 0C385.361 0 391.358 6.01217 391.358 13.4285V63.8564Z" fill="black"/>
<path d="M683.349 392.386C648.174 392.386 619.659 420.975 619.659 456.242V508.785C619.659 516.202 613.663 522.214 606.266 522.214C598.869 522.214 592.873 516.202 592.873 508.785V457.3C592.873 421.449 563.886 392.386 528.129 392.386H461.616C454.219 392.386 448.223 386.373 448.223 378.957C448.223 371.541 454.219 365.528 461.616 365.528H523.683C561.896 365.528 592.873 334.47 592.873 296.157V240.215C592.873 232.798 598.869 226.786 606.266 226.786C613.663 226.786 619.659 232.798 619.659 240.215V301.672C619.659 336.939 648.174 365.528 683.349 365.528L733.644 365.528C741.041 365.528 747.038 371.541 747.038 378.957C747.038 386.373 741.041 392.386 733.644 392.386H683.349Z" fill="black"/>
<path d="M355.68 685.144C355.68 649.877 327.166 621.287 291.991 621.287H239.585C232.188 621.287 226.192 615.275 226.192 607.859C226.192 600.442 232.188 594.43 239.585 594.43H290.936C326.693 594.43 355.68 565.367 355.68 529.516V462.829C355.68 455.412 361.677 449.4 369.074 449.4C376.471 449.4 382.467 455.412 382.467 462.829V525.059C382.467 563.372 413.444 594.43 451.656 594.43H507.453C514.849 594.43 520.846 600.442 520.846 607.859C520.846 615.275 514.849 621.287 507.453 621.287H446.156C410.982 621.287 382.467 649.877 382.467 685.144V735.572C382.467 742.988 376.471 749 369.074 749C361.677 749 355.68 742.988 355.68 735.572V685.144Z" fill="black"/>
<path d="M63.6891 356.615C98.8637 356.615 127.378 328.025 127.378 292.758V240.215C127.378 232.798 133.375 226.786 140.772 226.786C148.169 226.786 154.165 232.798 154.165 240.215V291.7C154.165 327.551 183.152 356.615 218.909 356.615H285.422C292.819 356.615 298.815 362.627 298.815 370.043C298.815 377.459 292.819 383.472 285.422 383.472H223.354C185.142 383.472 154.165 414.53 154.165 452.843V508.785C154.165 516.202 148.169 522.214 140.772 522.214C133.375 522.214 127.378 516.202 127.378 508.785V447.328C127.378 412.061 98.8637 383.472 63.6891 383.472H13.3934C5.99641 383.472 -8.82078e-08 377.459 0 370.043C8.82078e-08 362.627 5.99642 356.615 13.3934 356.615H63.6891Z" fill="black"/>
</svg>
