<svg xmlns="http://www.w3.org/2000/svg" viewBox="0 0 32 32" fill="none">
  <path fill="#25D366" d="M16 0C7.163 0 0 7.163 0 16c0 2.82.735 5.47 2.02 7.77L0 32l8.44-2.01A15.93 15.93 0 0 0 16 32c8.837 0 16-7.163 16-16S24.837 0 16 0Z"/>
  <path fill="#fff" d="M23.47 19.16c-.4-.2-2.37-1.17-2.74-1.3-.37-.14-.63-.2-.9.2-.27.4-1.03 1.3-1.26 1.56-.23.27-.46.3-.86.1-.4-.2-1.68-.62-3.2-1.98-1.18-1.05-1.98-2.36-2.21-2.76-.23-.4-.02-.62.17-.82.18-.18.4-.46.6-.7.2-.23.27-.4.4-.66.13-.27.07-.5-.03-.7-.1-.2-.9-2.17-1.24-2.98-.33-.78-.66-.68-.9-.69-.23-.01-.5-.01-.77-.01-.27 0-.7.1-1.07.5-.37.4-1.4 1.37-1.4 3.34 0 1.97 1.43 3.87 1.63 4.14.2.27 2.82 4.3 6.83 6.03.95.41 1.7.66 2.28.84.96.3 1.83.26 2.52.16.77-.11 2.37-.97 2.7-1.9.34-.94.34-1.74.24-1.9-.1-.17-.37-.27-.77-.47Z"/>
</svg>
